<svg width="172.000000" height="172.000000" viewBox="0 0 172 172" fill="none" xmlns="http://www.w3.org/2000/svg" xmlns:xlink="http://www.w3.org/1999/xlink">
	<desc>
			Created with Pixso.
	</desc>
	<defs/>
	<path id="Star 1" d="M85.5 68L80.77 80.77L68 85.5L80.77 90.22L85.5 103L90.22 90.22L103 85.5L90.22 80.77L85.5 68Z" fill="#FFFFFF" fill-opacity="1.000000" fill-rule="evenodd"/>
	<path id="A" d="M5.29 86.66L15.68 90.05L15.71 87.65L13.24 86.98L13.27 83.8L15.76 83.19L15.79 80.69L5.32 83.83L5.29 86.66ZM11.4 86.48L10.45 86.21Q9.66 85.98 8.8 85.78C8.22 85.63 7.65 85.49 7.1 85.36L7.1 85.29C7.64 85.16 8.21 85.03 8.8 84.9C9.38 84.75 9.94 84.62 10.47 84.48L11.43 84.26L11.4 86.48Z" fill="#FFFFFF" fill-opacity="1.000000" fill-rule="evenodd"/>
	<path id="r" d="M8.86 72.7L16.64 74.28L17.11 71.97L12.59 71.06Q11.87 70.58 11.65 70.05C11.5 69.68 11.45 69.35 11.51 69.06Q11.56 68.81 11.63 68.62C11.68 68.49 11.74 68.36 11.81 68.24L9.89 67.46C9.82 67.55 9.76 67.67 9.71 67.81C9.65 67.95 9.59 68.13 9.55 68.35Q9.43 68.94 9.7 69.62Q9.96 70.29 10.65 70.87L10.64 70.94L9.25 70.82L8.86 72.7Z" fill="#FFFFFF" fill-opacity="1.000000" fill-rule="evenodd"/>
	<path id="t" d="M19.51 61.71Q20.34 61.33 20.8 60.14Q21.01 59.6 21.07 59.17C21.12 58.86 21.15 58.61 21.16 58.39L19.43 58.12C19.43 58.24 19.42 58.37 19.4 58.51C19.39 58.64 19.36 58.76 19.31 58.88Q19.19 59.19 18.97 59.37Q18.88 59.43 18.77 59.48Q18.39 59.63 17.76 59.38L14.79 58.24L15.48 56.46L13.76 55.8L13.07 57.58L11.1 56.82L10.4 58.64L12.28 59.66L11.93 60.83L13.56 61.45L13.95 60.44L16.95 61.59Q18.23 62.09 19.25 61.81Q19.38 61.77 19.51 61.71Z" fill="#FFFFFF" fill-opacity="1.000000" fill-rule="evenodd"/>
	<path id="w" d="M17.06 48.41L24.8 51.07L26.26 48.82L23.99 46.5C23.72 46.23 23.44 45.98 23.16 45.73C22.88 45.47 22.58 45.19 22.26 44.9L22.3 44.85C22.7 45.02 23.07 45.18 23.42 45.33L24.48 45.75L27.53 46.87L29.03 44.56L23.41 38.64L22.23 40.47L24.9 43.1C25.19 43.38 25.48 43.65 25.78 43.9C26.07 44.14 26.37 44.41 26.67 44.69L26.64 44.75C26.26 44.59 25.88 44.44 25.51 44.3C25.15 44.16 24.78 44.01 24.4 43.88L20.82 42.63L19.71 44.33L22.32 47.07Q22.71 47.5 23.15 47.92C23.44 48.18 23.74 48.46 24.04 48.74L24 48.8C23.63 48.63 23.27 48.46 22.92 48.3Q22.39 48.05 21.84 47.81L18.34 46.45L17.06 48.41Z" fill="#FFFFFF" fill-opacity="1.000000" fill-rule="evenodd"/>
	<path id="o" d="M35.35 36.72C36 36.53 36.56 36.2 37.05 35.73Q37.42 35.37 37.68 34.93Q37.92 34.53 38.06 34.07Q38.14 33.81 38.18 33.54Q38.28 32.82 38.09 32.06Q37.82 31 36.91 30.06Q35.98 29.11 34.95 28.82C34.26 28.63 33.59 28.63 32.95 28.81Q32.45 28.94 32.02 29.18Q31.6 29.42 31.25 29.77Q30.93 30.08 30.7 30.43Q30.39 30.9 30.23 31.45C30.03 32.09 30.02 32.76 30.19 33.45Q30.44 34.5 31.37 35.45Q32.28 36.39 33.33 36.69Q34.09 36.9 34.81 36.82Q35.08 36.79 35.35 36.72ZM36.07 33.17C36.18 33.64 36.06 34.03 35.72 34.37Q35.44 34.64 35.11 34.72Q34.82 34.79 34.5 34.7Q33.82 34.5 33.1 33.77Q32.38 33.02 32.21 32.34Q32.13 32.02 32.2 31.74Q32.29 31.41 32.57 31.13Q32.84 30.88 33.15 30.8Q33.44 30.72 33.78 30.81Q34.46 30.99 35.19 31.74Q35.9 32.47 36.07 33.17Z" fill="#FFFFFF" fill-opacity="1.000000" fill-rule="evenodd"/>
	<path id="r" d="M40.34 22.36L44.76 28.95L46.71 27.64L44.15 23.81Q43.97 22.97 44.19 22.44C44.34 22.07 44.54 21.8 44.79 21.63Q45 21.49 45.18 21.41C45.3 21.35 45.44 21.3 45.57 21.26L44.76 19.36C44.64 19.37 44.52 19.41 44.38 19.48C44.24 19.53 44.08 19.62 43.89 19.75Q43.38 20.09 43.1 20.76Q42.81 21.41 42.9 22.32L42.84 22.36L41.94 21.29L40.34 22.36Z" fill="#FFFFFF" fill-opacity="1.000000" fill-rule="evenodd"/>
	<path id="k" d="M50.29 12.59L54.75 22.88L56.85 21.97L56.08 20.18L56.55 18.74L59.42 20.86L61.76 19.85L57.15 16.75L58.41 12.65L56.06 13.67L55.01 17.56L54.95 17.59L52.39 11.68L50.29 12.59Z" fill="#FFFFFF" fill-opacity="1.000000" fill-rule="evenodd"/>
	<path id="o" d="M68.95 17.46C69.6 17.65 70.25 17.67 70.91 17.53Q71.43 17.41 71.88 17.18Q72.29 16.97 72.65 16.66Q72.86 16.47 73.03 16.27Q73.5 15.71 73.74 14.96Q74.07 13.93 73.8 12.64Q73.51 11.35 72.79 10.55C72.3 10.03 71.74 9.67 71.1 9.48Q70.61 9.33 70.11 9.31Q69.63 9.29 69.15 9.4Q68.72 9.49 68.33 9.67Q67.82 9.9 67.39 10.28C66.89 10.72 66.52 11.28 66.3 11.96Q65.96 12.98 66.24 14.28Q66.52 15.56 67.25 16.37Q67.78 16.95 68.44 17.26Q68.69 17.38 68.95 17.46ZM71.44 14.84C71.29 15.29 70.98 15.56 70.51 15.67Q70.12 15.75 69.8 15.64Q69.53 15.55 69.3 15.31Q68.82 14.77 68.61 13.77Q68.38 12.75 68.6 12.08Q68.71 11.77 68.92 11.57Q69.16 11.34 69.55 11.26Q69.91 11.18 70.22 11.28Q70.5 11.37 70.74 11.62Q71.23 12.14 71.45 13.15Q71.67 14.15 71.44 14.84Z" fill="#FFFFFF" fill-opacity="1.000000" fill-rule="evenodd"/>
	<path id="f" d="M81.21 9.76L81.45 15.85L83.81 15.76L83.56 9.67L84.99 9.61L84.92 7.77L83.49 7.83L83.47 7.35Q83.45 6.74 83.68 6.48C83.83 6.29 84.05 6.19 84.34 6.18C84.47 6.17 84.6 6.18 84.74 6.21C84.88 6.23 85.02 6.26 85.16 6.3L85.52 4.56C85.35 4.5 85.13 4.45 84.85 4.4C84.57 4.34 84.26 4.32 83.93 4.34Q82.86 4.38 82.24 4.82Q81.88 5.07 81.65 5.4Q81.47 5.66 81.35 5.96Q81.09 6.66 81.13 7.51L81.14 7.94L80.09 8.06L80.16 9.8L81.21 9.76Z" fill="#FFFFFF" fill-opacity="1.000000" fill-rule="evenodd"/>
	<path id="t" d="M92.95 15.64Q93.52 16.35 94.79 16.51Q95.36 16.58 95.8 16.53C96.11 16.51 96.36 16.47 96.57 16.43L96.41 14.69C96.3 14.72 96.18 14.74 96.03 14.76C95.9 14.77 95.77 14.77 95.65 14.76Q95.32 14.72 95.09 14.54Q95.01 14.47 94.94 14.38Q94.7 14.05 94.78 13.38L95.17 10.22L97.06 10.45L97.28 8.62L95.39 8.39L95.64 6.3L93.71 6.06L93.18 8.12L91.96 8.07L91.75 9.8L92.83 9.94L92.44 13.13Q92.28 14.49 92.8 15.41Q92.87 15.53 92.95 15.64Z" fill="#FFFFFF" fill-opacity="1.000000" fill-rule="evenodd"/>
	<path id="h" d="M106.72 7.16L103.31 17.85L105.55 18.56L107.18 13.46Q107.66 13.22 108.02 13.14C108.27 13.07 108.53 13.08 108.82 13.17Q109.2 13.3 109.36 13.56Q109.4 13.63 109.42 13.7Q109.55 14.08 109.29 14.9L107.88 19.31L110.12 20.02L111.62 15.33Q112.07 13.91 111.77 12.92Q111.69 12.66 111.55 12.44Q111.16 11.82 110.25 11.53Q109.52 11.3 108.86 11.43Q108.83 11.43 108.8 11.44C108.36 11.53 107.95 11.66 107.59 11.82L108.12 10.5L108.96 7.88L106.72 7.16Z" fill="#FFFFFF" fill-opacity="1.000000" fill-rule="evenodd"/>
	<path id="e" d="M118.49 23.47C118.86 24.05 119.37 24.53 120.03 24.9Q120.64 25.25 121.42 25.41C121.93 25.51 122.44 25.54 122.92 25.5L122.94 23.87Q121.93 23.91 121.19 23.5Q120.61 23.18 120.32 22.69Q120.26 22.59 120.21 22.49C120.02 22.07 120.02 21.58 120.21 21.02L124.35 23.35C124.42 23.27 124.51 23.16 124.62 23C124.74 22.83 124.85 22.66 124.95 22.49Q125.48 21.54 125.56 20.61Q125.62 20.03 125.48 19.5Q125.4 19.18 125.25 18.88Q124.85 18.07 123.86 17.51Q123.63 17.38 123.39 17.29Q122.76 17.06 122.04 17.08Q121.82 17.08 121.61 17.1Q120.84 17.2 120.11 17.63Q119.2 18.18 118.56 19.31Q117.92 20.45 117.93 21.52Q117.93 22.15 118.13 22.72Q118.26 23.11 118.49 23.47ZM123.45 21.06L120.95 19.66Q121.43 19.07 121.99 18.96Q122.34 18.88 122.65 18.95Q122.85 19 123.03 19.1Q123.53 19.38 123.66 19.78Q123.69 19.87 123.7 19.97Q123.7 19.98 123.7 19.99Q123.77 20.5 123.45 21.06Z" fill="#FFFFFF" fill-opacity="1.000000" fill-rule="evenodd"/>
	<path id="w" d="M133.49 23.8L129.64 31.02L131.64 32.82L134.28 30.94C134.59 30.71 134.88 30.48 135.17 30.23C135.47 30 135.79 29.75 136.13 29.48L136.18 29.53C135.95 29.89 135.73 30.24 135.53 30.56L134.95 31.54L133.36 34.37L135.4 36.22L142.13 31.6L140.52 30.14L137.49 32.37C137.17 32.61 136.86 32.86 136.57 33.11C136.28 33.36 135.97 33.62 135.64 33.87L135.6 33.83C135.81 33.48 136.02 33.13 136.21 32.79C136.41 32.45 136.61 32.11 136.8 31.75L138.6 28.42L137.1 27.05L133.98 29.2Q133.5 29.52 133.02 29.88C132.7 30.13 132.38 30.38 132.06 30.63L132.01 30.59C132.23 30.24 132.45 29.91 132.67 29.59Q133 29.11 133.32 28.61L135.22 25.36L133.49 23.8Z" fill="#FFFFFF" fill-opacity="1.000000" fill-rule="evenodd"/>
	<path id="e" d="M142.17 43.68C142.25 44.37 142.51 45.02 142.94 45.64Q143.35 46.22 143.98 46.69C144.4 47.01 144.84 47.26 145.3 47.43L146.01 45.97Q145.08 45.56 144.59 44.87Q144.22 44.33 144.16 43.77Q144.14 43.65 144.14 43.54C144.16 43.08 144.37 42.63 144.78 42.22L147.51 46.1C147.6 46.06 147.73 46 147.9 45.9C148.08 45.81 148.25 45.7 148.42 45.58Q149.31 44.95 149.78 44.15Q150.09 43.65 150.2 43.12Q150.26 42.79 150.25 42.45Q150.24 41.56 149.59 40.63Q149.44 40.41 149.25 40.22Q148.79 39.74 148.13 39.44Q147.94 39.35 147.73 39.29Q147 39.04 146.15 39.11Q145.09 39.22 144.03 39.96Q142.96 40.72 142.5 41.68Q142.24 42.26 142.17 42.85Q142.12 43.26 142.17 43.68ZM147.69 43.65L146.04 41.31Q146.73 40.98 147.28 41.12Q147.62 41.2 147.88 41.41Q148.03 41.53 148.15 41.7Q148.48 42.17 148.42 42.58Q148.41 42.68 148.38 42.77Q148.38 42.78 148.37 42.79Q148.21 43.28 147.69 43.65Z" fill="#FFFFFF" fill-opacity="1.000000" fill-rule="evenodd"/>
	<path id="e" d="M149.26 55.42C149.21 56.11 149.33 56.8 149.64 57.49Q149.93 58.13 150.45 58.72C150.8 59.12 151.19 59.44 151.6 59.7L152.59 58.4Q151.75 57.83 151.41 57.05Q151.14 56.46 151.2 55.89Q151.21 55.77 151.23 55.66C151.33 55.21 151.62 54.82 152.11 54.49L154.03 58.83C154.13 58.81 154.27 58.77 154.46 58.71C154.65 58.65 154.84 58.58 155.03 58.49Q156.02 58.05 156.64 57.36Q157.04 56.93 157.25 56.42Q157.37 56.11 157.43 55.78Q157.6 54.9 157.13 53.86Q157.03 53.62 156.88 53.4Q156.52 52.84 155.93 52.42Q155.76 52.29 155.57 52.19Q154.9 51.8 154.06 51.71Q153 51.6 151.81 52.13Q150.61 52.66 149.98 53.52Q149.6 54.03 149.42 54.6Q149.3 55 149.26 55.42ZM154.68 56.46L153.52 53.84Q154.26 53.65 154.77 53.9Q155.09 54.05 155.3 54.29Q155.43 54.44 155.52 54.63Q155.75 55.16 155.61 55.55Q155.58 55.65 155.53 55.73Q155.53 55.74 155.52 55.74Q155.27 56.2 154.68 56.46Z" fill="#FFFFFF" fill-opacity="1.000000" fill-rule="evenodd"/>
	<path id="k" d="M164.25 64.43L153.32 66.91L153.82 69.14L155.73 68.71L157.06 69.44L154.44 71.87L155 74.35L158.9 70.4L162.7 72.39L162.13 69.89L158.5 68.14L158.49 68.08L164.76 66.66L164.25 64.43Z" fill="#FFFFFF" fill-opacity="1.000000" fill-rule="evenodd"/>
	<path id="A" d="M166.19 82.26L155.69 79.22L155.74 81.61L158.24 82.2L158.3 85.39L155.84 86.08L155.89 88.57L166.25 85.09L166.19 82.26ZM160.09 82.64L161.05 82.88Q161.84 83.09 162.71 83.26C163.3 83.39 163.87 83.51 164.43 83.63L164.43 83.69C163.89 83.84 163.33 83.99 162.74 84.14C162.16 84.3 161.61 84.46 161.09 84.61L160.13 84.87L160.09 82.64Z" fill="#FFFFFF" fill-opacity="1.000000" fill-rule="evenodd"/>
	<path id="r" d="M163.07 96.33L155.25 95.01L154.86 97.33L159.4 98.1Q160.14 98.55 160.37 99.07C160.54 99.44 160.6 99.77 160.55 100.06Q160.5 100.31 160.44 100.5C160.39 100.63 160.34 100.76 160.28 100.89L162.22 101.61C162.28 101.51 162.34 101.39 162.39 101.25C162.45 101.11 162.49 100.93 162.53 100.7Q162.63 100.11 162.34 99.44Q162.06 98.78 161.34 98.22L161.35 98.15L162.75 98.23L163.07 96.33Z" fill="#FFFFFF" fill-opacity="1.000000" fill-rule="evenodd"/>
	<path id="t" d="M152.79 107.66Q151.97 108.07 151.56 109.28Q151.37 109.82 151.32 110.26C151.28 110.56 151.25 110.82 151.25 111.03L152.99 111.25C152.98 111.13 152.99 111 153 110.86C153.01 110.73 153.04 110.61 153.08 110.48Q153.19 110.17 153.41 109.99Q153.5 109.92 153.6 109.87Q153.98 109.71 154.61 109.93L157.62 110.98L157 112.78L158.73 113.38L159.36 111.58L161.35 112.28L161.99 110.43L160.09 109.48L160.4 108.3L158.75 107.73L158.39 108.76L155.36 107.7Q154.06 107.25 153.05 107.56Q152.92 107.6 152.79 107.66Z" fill="#FFFFFF" fill-opacity="1.000000" fill-rule="evenodd"/>
	<path id="w" d="M155.67 120.88L147.85 118.47L146.46 120.77L148.81 123.01C149.09 123.27 149.38 123.52 149.67 123.76C149.96 124.01 150.26 124.27 150.59 124.56L150.56 124.61C150.15 124.45 149.77 124.31 149.42 124.17L148.35 123.78L145.26 122.76L143.84 125.11L149.64 130.85L150.77 128.99L148.01 126.44C147.71 126.17 147.41 125.91 147.11 125.67C146.8 125.44 146.5 125.18 146.19 124.91L146.22 124.85C146.61 125 146.99 125.13 147.36 125.26C147.73 125.39 148.1 125.52 148.49 125.64L152.1 126.78L153.16 125.04L150.46 122.39Q150.06 121.97 149.61 121.57C149.3 121.31 149 121.05 148.69 120.77L148.72 120.72C149.1 120.87 149.47 121.03 149.83 121.18Q150.36 121.41 150.92 121.63L154.46 122.88L155.67 120.88Z" fill="#FFFFFF" fill-opacity="1.000000" fill-rule="evenodd"/>
	<path id="o" d="M137.78 133.16C137.14 133.37 136.58 133.72 136.11 134.2Q135.75 134.58 135.5 135.02Q135.28 135.43 135.15 135.89Q135.08 136.16 135.05 136.43Q134.97 137.15 135.19 137.91Q135.49 138.95 136.43 139.86Q137.39 140.78 138.44 141.04C139.13 141.2 139.8 141.19 140.44 140.99Q140.93 140.84 141.35 140.58Q141.76 140.33 142.1 139.97Q142.41 139.66 142.63 139.29Q142.92 138.81 143.07 138.26C143.25 137.61 143.24 136.95 143.04 136.25Q142.75 135.22 141.8 134.3Q140.85 133.39 139.79 133.12Q139.03 132.94 138.31 133.04Q138.04 133.08 137.78 133.16ZM137.17 136.73C137.05 136.27 137.15 135.87 137.48 135.52Q137.76 135.24 138.08 135.15Q138.37 135.08 138.69 135.15Q139.38 135.33 140.12 136.04Q140.87 136.76 141.06 137.43Q141.15 137.75 141.08 138.04Q141.01 138.37 140.73 138.65Q140.48 138.92 140.17 139.01Q139.88 139.09 139.54 139.01Q138.85 138.86 138.1 138.13Q137.36 137.42 137.17 136.73Z" fill="#FFFFFF" fill-opacity="1.000000" fill-rule="evenodd"/>
	<path id="r" d="M133.26 147.68L128.63 141.23L126.72 142.6L129.41 146.35Q129.61 147.18 129.41 147.72C129.27 148.1 129.08 148.37 128.84 148.55Q128.63 148.7 128.46 148.78C128.33 148.85 128.2 148.9 128.06 148.95L128.94 150.82C129.05 150.8 129.18 150.76 129.31 150.69C129.45 150.63 129.61 150.53 129.8 150.4Q130.29 150.05 130.55 149.37Q130.82 148.7 130.7 147.8L130.75 147.76L131.7 148.8L133.26 147.68Z" fill="#FFFFFF" fill-opacity="1.000000" fill-rule="evenodd"/>
	<path id="k" d="M123.63 157.76L118.83 147.62L116.77 148.6L117.6 150.36L117.17 151.82L114.23 149.79L111.93 150.88L116.64 153.83L115.51 157.97L117.83 156.87L118.75 152.95L118.81 152.92L121.56 158.74L123.63 157.76Z" fill="#FFFFFF" fill-opacity="1.000000" fill-rule="evenodd"/>
	<path id="o" d="M104.82 153.5C104.17 153.34 103.51 153.34 102.86 153.5Q102.35 153.63 101.9 153.88Q101.5 154.1 101.15 154.43Q100.95 154.62 100.78 154.83Q100.33 155.4 100.11 156.16Q99.81 157.2 100.14 158.48Q100.46 159.76 101.21 160.53C101.72 161.04 102.29 161.38 102.94 161.55Q103.43 161.69 103.93 161.69Q104.41 161.69 104.89 161.57Q105.32 161.46 105.7 161.27Q106.19 161.02 106.61 160.63C107.11 160.17 107.45 159.6 107.65 158.91Q107.95 157.88 107.63 156.59Q107.31 155.32 106.55 154.54Q106 153.98 105.34 153.68Q105.09 153.58 104.82 153.5ZM102.42 156.2C102.56 155.75 102.86 155.47 103.32 155.35Q103.71 155.25 104.03 155.35Q104.31 155.44 104.54 155.67Q105.04 156.19 105.29 157.18Q105.54 158.19 105.35 158.87Q105.25 159.18 105.05 159.39Q104.81 159.63 104.43 159.72Q104.07 159.81 103.76 159.73Q103.47 159.64 103.22 159.4Q102.72 158.9 102.46 157.89Q102.21 156.9 102.42 156.2Z" fill="#FFFFFF" fill-opacity="1.000000" fill-rule="evenodd"/>
	<path id="f" d="M92.82 161.6L92.38 155.52L90.03 155.69L90.47 161.77L89.05 161.87L89.18 163.71L90.6 163.61L90.64 164.08Q90.68 164.69 90.46 164.96C90.31 165.16 90.1 165.26 89.81 165.28C89.68 165.29 89.55 165.29 89.41 165.26C89.27 165.25 89.13 165.23 88.98 165.18L88.68 166.94C88.85 166.99 89.08 167.04 89.36 167.08C89.64 167.12 89.95 167.13 90.28 167.11Q91.35 167.03 91.95 166.57Q92.3 166.31 92.53 165.97Q92.7 165.71 92.8 165.4Q93.04 164.7 92.98 163.85L92.95 163.42L93.99 163.26L93.87 161.53L92.82 161.6Z" fill="#FFFFFF" fill-opacity="1.000000" fill-rule="evenodd"/>
	<path id="t" d="M80.89 156.11Q80.3 155.41 79.03 155.3Q78.45 155.25 78.01 155.31C77.71 155.34 77.46 155.39 77.25 155.43L77.46 157.17C77.57 157.14 77.7 157.11 77.84 157.09C77.97 157.07 78.1 157.06 78.23 157.08Q78.56 157.1 78.79 157.27Q78.88 157.34 78.95 157.43Q79.19 157.75 79.14 158.42L78.85 161.6L76.96 161.43L76.8 163.26L78.69 163.43L78.51 165.53L80.45 165.71L80.91 163.63L82.13 163.64L82.28 161.9L81.2 161.8L81.48 158.6Q81.6 157.23 81.06 156.33Q80.98 156.21 80.89 156.11Z" fill="#FFFFFF" fill-opacity="1.000000" fill-rule="evenodd"/>
	<path id="h" d="M67.41 165.03L70.47 154.24L68.21 153.6L66.74 158.75Q66.27 159 65.91 159.1C65.67 159.17 65.4 159.17 65.12 159.09Q64.73 158.98 64.56 158.72Q64.52 158.66 64.5 158.58Q64.35 158.21 64.59 157.38L65.85 152.93L63.59 152.28L62.24 157.03Q61.84 158.46 62.17 159.43Q62.26 159.69 62.41 159.91Q62.82 160.52 63.74 160.78Q64.48 160.99 65.13 160.84Q65.16 160.83 65.19 160.82C65.63 160.71 66.03 160.57 66.39 160.4L65.9 161.74L65.14 164.39L67.41 165.03Z" fill="#FFFFFF" fill-opacity="1.000000" fill-rule="evenodd"/>
	<path id="e" d="M55.12 149.12C54.73 148.54 54.2 148.08 53.53 147.73Q52.9 147.41 52.12 147.28C51.6 147.19 51.1 147.17 50.61 147.23L50.65 148.86Q51.66 148.78 52.42 149.18Q53 149.48 53.31 149.96Q53.37 150.05 53.43 150.15C53.63 150.57 53.65 151.06 53.48 151.62L49.26 149.43C49.19 149.5 49.11 149.62 49 149.78C48.89 149.95 48.79 150.13 48.69 150.31Q48.19 151.27 48.14 152.2Q48.1 152.79 48.25 153.31Q48.35 153.63 48.51 153.93Q48.93 154.72 49.94 155.24Q50.17 155.37 50.42 155.45Q51.06 155.66 51.78 155.62Q51.99 155.61 52.2 155.58Q52.97 155.46 53.68 155Q54.58 154.42 55.18 153.27Q55.78 152.11 55.74 151.04Q55.71 150.41 55.5 149.85Q55.35 149.47 55.12 149.12ZM50.23 151.68L52.77 153Q52.31 153.61 51.76 153.74Q51.41 153.83 51.1 153.76Q50.9 153.73 50.72 153.63Q50.21 153.37 50.07 152.97Q50.04 152.88 50.02 152.78Q50.02 152.77 50.02 152.77Q49.94 152.26 50.23 151.68Z" fill="#FFFFFF" fill-opacity="1.000000" fill-rule="evenodd"/>
	<path id="w" d="M40.11 149.28L43.72 141.94L41.67 140.2L39.09 142.17C38.79 142.4 38.5 142.65 38.22 142.9C37.93 143.14 37.61 143.4 37.28 143.68L37.23 143.64C37.45 143.27 37.66 142.91 37.85 142.59L38.4 141.59L39.9 138.7L37.79 136.93L31.22 141.76L32.88 143.16L35.83 140.84C36.14 140.59 36.44 140.33 36.73 140.07C37.01 139.81 37.31 139.54 37.63 139.28L37.68 139.32C37.47 139.68 37.28 140.03 37.1 140.38C36.91 140.72 36.72 141.07 36.54 141.44L34.85 144.83L36.4 146.14L39.45 143.9Q39.92 143.56 40.39 143.18C40.69 142.92 41 142.66 41.32 142.4L41.37 142.44C41.16 142.79 40.95 143.13 40.74 143.46Q40.43 143.95 40.12 144.46L38.33 147.77L40.11 149.28Z" fill="#FFFFFF" fill-opacity="1.000000" fill-rule="evenodd"/>
	<path id="e" d="M30.79 129.69C30.68 129 30.41 128.36 29.95 127.75Q29.53 127.19 28.88 126.74C28.45 126.43 28 126.2 27.54 126.04L26.87 127.53Q27.82 127.9 28.33 128.58Q28.72 129.1 28.8 129.67Q28.81 129.78 28.82 129.89C28.82 130.36 28.62 130.8 28.23 131.24L25.37 127.44C25.28 127.48 25.15 127.55 24.98 127.65C24.81 127.76 24.64 127.87 24.48 127.99Q23.61 128.65 23.16 129.46Q22.87 129.97 22.78 130.51Q22.73 130.84 22.75 131.18Q22.79 132.07 23.47 132.98Q23.63 133.19 23.82 133.37Q24.3 133.84 24.97 134.12Q25.16 134.2 25.37 134.26Q26.11 134.48 26.95 134.38Q28.01 134.25 29.05 133.46Q30.09 132.67 30.52 131.69Q30.77 131.11 30.82 130.52Q30.85 130.11 30.79 129.69ZM25.27 129.9L27 132.18Q26.32 132.53 25.77 132.41Q25.42 132.34 25.16 132.15Q25 132.03 24.87 131.86Q24.53 131.41 24.57 130.99Q24.58 130.89 24.61 130.8Q24.61 130.79 24.61 130.78Q24.76 130.28 25.27 129.9Z" fill="#FFFFFF" fill-opacity="1.000000" fill-rule="evenodd"/>
	<path id="e" d="M23.31 118.19C23.35 117.5 23.2 116.81 22.87 116.13Q22.56 115.5 22.02 114.92C21.65 114.54 21.26 114.23 20.83 113.99L19.89 115.31Q20.75 115.86 21.12 116.62Q21.4 117.21 21.37 117.78Q21.36 117.89 21.34 118.01C21.25 118.46 20.97 118.87 20.5 119.21L18.43 114.94C18.34 114.96 18.2 115 18.02 115.07C17.82 115.13 17.64 115.21 17.45 115.3Q16.47 115.78 15.88 116.49Q15.49 116.93 15.3 117.45Q15.19 117.76 15.14 118.09Q15 118.98 15.5 120Q15.61 120.24 15.76 120.45Q16.14 121.01 16.75 121.4Q16.92 121.52 17.11 121.62Q17.8 121.98 18.64 122.05Q19.71 122.12 20.87 121.56Q22.05 120.99 22.66 120.11Q23.02 119.58 23.18 119.01Q23.29 118.61 23.31 118.19ZM17.86 117.33L19.11 119.9Q18.38 120.12 17.86 119.89Q17.53 119.75 17.31 119.51Q17.18 119.36 17.09 119.18Q16.84 118.66 16.96 118.26Q16.99 118.17 17.04 118.08Q17.04 118.07 17.05 118.07Q17.28 117.61 17.86 117.33Z" fill="#FFFFFF" fill-opacity="1.000000" fill-rule="evenodd"/>
	<path id="k" d="M8.04 109.67L18.89 106.84L18.31 104.62L16.42 105.12L15.07 104.43L17.6 101.92L16.96 99.45L13.19 103.53L9.33 101.66L9.98 104.14L13.66 105.77L13.68 105.83L7.46 107.46L8.04 109.67Z" fill="#FFFFFF" fill-opacity="1.000000" fill-rule="evenodd"/>
	<path id=" " d="" fill="#FFFFFF" fill-opacity="1.000000" fill-rule="evenodd"/>
	<path id=" " d="" fill="#FFFFFF" fill-opacity="1.000000" fill-rule="evenodd"/>
</svg>
