<svg width="8.000000" height="15.000000" viewBox="0 0 8 15" fill="none" xmlns="http://www.w3.org/2000/svg" xmlns:xlink="http://www.w3.org/1999/xlink">
	<desc>
			Created with Pixso.
	</desc>
	<defs/>
	<path id="Vector" d="M7.3 5.57L7.06 7.66C7.05 7.76 7 7.85 6.93 7.91C6.86 7.98 6.77 8.01 6.67 8.02L4.49 8.02L4.48 14.21C4.48 14.29 4.45 14.36 4.4 14.41C4.35 14.46 4.28 14.49 4.21 14.5L2 14.5C1.96 14.5 1.92 14.49 1.89 14.47C1.85 14.46 1.82 14.44 1.8 14.41C1.77 14.38 1.75 14.35 1.74 14.32C1.73 14.28 1.72 14.25 1.72 14.21L1.72 8.02L0.09 8.02C0.03 8.01 -0.02 8 -0.06 7.98C-0.11 7.96 -0.15 7.93 -0.19 7.9C-0.23 7.86 -0.25 7.82 -0.27 7.77C-0.29 7.72 -0.3 7.67 -0.3 7.62L-0.31 5.53C-0.31 5.48 -0.3 5.43 -0.28 5.38C-0.26 5.33 -0.23 5.29 -0.2 5.25C-0.16 5.21 -0.12 5.18 -0.07 5.16C-0.02 5.14 0.03 5.13 0.08 5.13L1.72 5.13L1.72 3.11C1.72 0.77 3.11 -0.5 5.15 -0.5L6.83 -0.5C6.88 -0.5 6.93 -0.49 6.98 -0.47C7.02 -0.45 7.07 -0.42 7.1 -0.39C7.14 -0.35 7.17 -0.31 7.19 -0.26C7.2 -0.21 7.21 -0.16 7.21 -0.11L7.21 1.65C7.21 1.7 7.2 1.76 7.19 1.8C7.17 1.85 7.14 1.9 7.1 1.93C7.07 1.97 7.02 2 6.98 2.02C6.93 2.04 6.88 2.05 6.83 2.05L5.8 2.05C4.69 2.05 4.48 2.6 4.48 3.38L4.48 5.13L6.91 5.13C6.97 5.13 7.02 5.14 7.07 5.17C7.12 5.19 7.17 5.22 7.2 5.27C7.24 5.31 7.27 5.36 7.28 5.41C7.3 5.46 7.3 5.52 7.3 5.57Z" fill="#090F1D" fill-opacity="1.000000" fill-rule="nonzero"/>
</svg>
