<svg width="14.000000" height="15.000000" viewBox="0 0 14 15" fill="none" xmlns="http://www.w3.org/2000/svg" xmlns:xlink="http://www.w3.org/1999/xlink">
	<desc>
			Created with Pixso.
	</desc>
	<defs/>
	<path id="Vector" d="M3.14 1.54C3.14 1.95 3.02 2.34 2.8 2.68C2.57 3.01 2.25 3.28 1.88 3.43C1.5 3.59 1.09 3.63 0.7 3.55C0.3 3.47 -0.07 3.27 -0.35 2.99C-0.64 2.7 -0.83 2.34 -0.91 1.94C-0.99 1.54 -0.95 1.13 -0.79 0.76C-0.64 0.38 -0.38 0.06 -0.04 -0.16C0.29 -0.39 0.69 -0.5 1.1 -0.5C1.64 -0.5 2.16 -0.29 2.54 0.09C2.92 0.48 3.14 1 3.14 1.54ZM2.68 4.95L2.68 13.99C2.68 14.05 2.66 14.12 2.64 14.18C2.61 14.24 2.58 14.3 2.53 14.35C2.48 14.39 2.43 14.43 2.37 14.46C2.3 14.48 2.24 14.5 2.17 14.5L0.02 14.5C-0.05 14.5 -0.12 14.48 -0.18 14.46C-0.24 14.43 -0.3 14.39 -0.34 14.35C-0.39 14.3 -0.43 14.24 -0.45 14.18C-0.48 14.12 -0.49 14.05 -0.49 13.99L-0.49 4.95C-0.49 4.82 -0.44 4.69 -0.34 4.59C-0.25 4.5 -0.12 4.44 0.02 4.44L2.17 4.44C2.31 4.44 2.43 4.5 2.53 4.59C2.62 4.69 2.68 4.82 2.68 4.95ZM13.95 9.65L13.95 14.03C13.95 14.09 13.93 14.15 13.91 14.21C13.89 14.26 13.85 14.32 13.81 14.36C13.77 14.4 13.71 14.44 13.66 14.46C13.6 14.48 13.54 14.5 13.48 14.5L11.16 14.5C11.1 14.5 11.04 14.48 10.98 14.46C10.93 14.44 10.87 14.4 10.83 14.36C10.79 14.32 10.75 14.26 10.73 14.21C10.71 14.15 10.69 14.09 10.7 14.03L10.7 9.79C10.7 9.16 10.88 7.02 9.04 7.02C7.62 7.02 7.33 8.48 7.27 9.14L7.27 14.03C7.27 14.15 7.22 14.27 7.13 14.36C7.05 14.44 6.93 14.49 6.81 14.5L4.57 14.5C4.51 14.5 4.45 14.48 4.39 14.46C4.33 14.44 4.28 14.4 4.24 14.36C4.2 14.32 4.16 14.26 4.14 14.21C4.12 14.15 4.1 14.09 4.1 14.03L4.1 4.91C4.1 4.85 4.12 4.79 4.14 4.73C4.16 4.68 4.2 4.62 4.24 4.58C4.28 4.54 4.33 4.5 4.39 4.48C4.45 4.46 4.51 4.44 4.57 4.44L6.81 4.44C6.93 4.44 7.05 4.49 7.14 4.58C7.23 4.67 7.28 4.79 7.28 4.91L7.28 5.7C7.8 4.9 8.59 4.29 10.26 4.29C13.97 4.29 13.95 7.75 13.95 9.65Z" fill="#090F1D" fill-opacity="1.000000" fill-rule="nonzero"/>
</svg>
