<svg width="15.000000" height="11.000000" viewBox="0 0 15 11" fill="none" xmlns="http://www.w3.org/2000/svg" xmlns:xlink="http://www.w3.org/1999/xlink">
	<desc>
			Created with Pixso.
	</desc>
	<defs/>
	<path id="Vector" d="M13.03 -0.8L12.78 -0.71L-0.69 4.14C-0.78 4.17 -0.86 4.23 -0.92 4.31C-0.98 4.4 -1.01 4.49 -1 4.59C-1 4.69 -0.96 4.79 -0.9 4.87C-0.83 4.94 -0.74 4.99 -0.65 5.02L2.84 5.97L3.49 7.88L4.14 9.79C4.18 9.88 4.24 9.96 4.32 10.03C4.39 10.1 4.48 10.14 4.58 10.16C4.68 10.18 4.78 10.18 4.88 10.16C4.98 10.13 5.07 10.08 5.14 10.01L6.94 8.31L10.48 10.71C10.91 11 11.53 10.78 11.64 10.3L13.98 -0.05C14.09 -0.57 13.55 -0.99 13.03 -0.8ZM11.31 1.5L5.23 6.47L4.94 6.71C4.88 6.76 4.84 6.83 4.83 6.91L4.76 7.44L4.59 8.92C4.59 8.94 4.58 8.96 4.57 8.97C4.56 8.99 4.54 9 4.52 9C4.51 9 4.49 8.99 4.47 8.98C4.46 8.97 4.45 8.95 4.45 8.93L3.95 7.45L3.44 5.93C3.42 5.86 3.42 5.79 3.45 5.72C3.48 5.65 3.53 5.6 3.59 5.56L9.92 1.93L11.12 1.25C11.29 1.15 11.47 1.37 11.31 1.5Z" fill="#090F1D" fill-opacity="1.000000" fill-rule="nonzero"/>
</svg>
