<svg width="15.000000" height="13.000000" viewBox="0 0 15 13" fill="none" xmlns="http://www.w3.org/2000/svg" xmlns:xlink="http://www.w3.org/1999/xlink">
	<desc>
			Created with Pixso.
	</desc>
	<defs/>
	<path id="Vector" d="M13.97 1.46C13.61 1.99 13.18 2.46 12.68 2.87C12.62 2.92 12.56 2.98 12.53 3.06C12.49 3.13 12.47 3.21 12.47 3.29L12.47 3.35C12.47 4.42 12.27 5.48 11.89 6.48C11.5 7.53 10.92 8.5 10.18 9.35C9.2 10.47 7.92 11.31 6.49 11.78C5.56 12.09 4.57 12.24 3.58 12.23C2.02 12.23 0.48 11.82 -0.87 11.03C-0.92 11 -0.96 10.96 -0.98 10.91C-1 10.86 -1 10.8 -0.99 10.75C-0.98 10.69 -0.95 10.65 -0.9 10.61C-0.86 10.58 -0.8 10.56 -0.75 10.56L-0.38 10.56C0.81 10.56 1.98 10.21 2.96 9.54C2.37 9.44 1.82 9.19 1.37 8.8C0.92 8.41 0.58 7.91 0.4 7.34C0.39 7.31 0.39 7.28 0.4 7.26C0.4 7.23 0.42 7.2 0.43 7.18C0.45 7.16 0.48 7.14 0.51 7.13C0.53 7.12 0.56 7.12 0.59 7.12C0.77 7.16 0.96 7.18 1.14 7.18L1.21 7.18C0.64 6.91 0.16 6.49 -0.18 5.96C-0.51 5.43 -0.69 4.82 -0.68 4.19C-0.68 4.16 -0.67 4.13 -0.66 4.11C-0.64 4.08 -0.62 4.06 -0.6 4.05C-0.57 4.03 -0.54 4.02 -0.51 4.02C-0.48 4.02 -0.46 4.03 -0.43 4.04C-0.2 4.17 0.05 4.27 0.31 4.33C-0.2 3.83 -0.53 3.17 -0.63 2.46C-0.72 1.75 -0.58 1.02 -0.22 0.4C-0.2 0.38 -0.19 0.36 -0.16 0.35C-0.14 0.33 -0.11 0.33 -0.09 0.32C-0.06 0.32 -0.03 0.32 -0.01 0.33C0.02 0.34 0.04 0.36 0.05 0.38C0.77 1.26 1.65 1.99 2.65 2.53C3.66 3.06 4.76 3.39 5.89 3.49L5.9 3.49C5.92 3.49 5.93 3.49 5.95 3.48C5.96 3.47 5.98 3.46 5.99 3.45C6 3.44 6.01 3.42 6.01 3.41C6.02 3.39 6.02 3.38 6.02 3.36C5.97 2.96 6 2.56 6.09 2.18C6.17 1.84 6.31 1.51 6.5 1.22C6.9 0.6 7.51 0.13 8.21 -0.09C8.54 -0.19 8.89 -0.24 9.24 -0.25C10.02 -0.25 10.78 0.04 11.38 0.56C11.45 0.63 11.55 0.67 11.65 0.67C11.68 0.67 11.71 0.66 11.75 0.65C12.3 0.51 12.83 0.29 13.33 0C13.36 -0.02 13.39 -0.02 13.42 -0.02C13.46 -0.02 13.49 -0.01 13.52 0.02C13.55 0.04 13.56 0.07 13.57 0.1C13.59 0.13 13.59 0.17 13.58 0.2C13.41 0.72 13.12 1.18 12.72 1.55C13.08 1.47 13.42 1.35 13.76 1.21C13.79 1.19 13.83 1.19 13.86 1.2C13.9 1.2 13.93 1.22 13.96 1.25C13.98 1.28 13.99 1.32 14 1.35C14 1.39 13.99 1.42 13.97 1.46Z" fill="#090F1D" fill-opacity="1.000000" fill-rule="nonzero"/>
</svg>
