<svg width="24.000000" height="24.000000" viewBox="0 0 24 24" fill="none" xmlns="http://www.w3.org/2000/svg" xmlns:xlink="http://www.w3.org/1999/xlink">
	<desc>
			Created with Pixso.
	</desc>
	<defs/>
	<rect id="vuesax/linear/ethereum-classic-(etc)" width="24.000000" height="24.000000" fill="#FFFFFF" fill-opacity="0"/>
	<path id="Vector" d="M11.7 7C11.9 6.89 12.1 6.89 12.4 7L17.2 9.1C17.6 9.3 18 8.8 17.7 8.39L12.7 2.3C12.4 1.89 11.8 1.89 11.5 2.3L6.5 8.39C6.1 8.8 6.5 9.3 6.9 9.1L11.7 7Z" stroke="#FFFFFF" stroke-opacity="1.000000" stroke-width="1.500000" stroke-linejoin="round"/>
	<path id="Vector" d="M11.7 17C11.9 17.1 12.1 17.1 12.4 17L17.2 14.9C17.6 14.7 18 15.2 17.7 15.6L12.7 21.7C12.4 22.1 11.8 22.1 11.5 21.7L6.5 15.6C6.1 15.2 6.5 14.7 6.9 14.9L11.7 17Z" stroke="#FFFFFF" stroke-opacity="1.000000" stroke-width="1.500000" stroke-linejoin="round"/>
	<path id="Vector" d="M6.79 11.89L11.8 14.39L16.79 11.89L11.8 9.39L6.79 11.89Z" stroke="#FFFFFF" stroke-opacity="1.000000" stroke-width="1.500000" stroke-linejoin="round"/>
	<g opacity="0.000000">
		<path id="Vector" d="M24 0L24 24L0 24L0 0L24 0Z" stroke="#FFFFFF" stroke-opacity="1.000000" stroke-width="1.000000"/>
	</g>
</svg>
